<svg xmlns="http://www.w3.org/2000/svg" viewBox="0 0 878 220.68"><defs><style>.cls-1{fill:none;}.cls-1,.cls-2{stroke:#000;stroke-miterlimit:10;}.cls-2{fill:#ffb9cf;}</style></defs><g id="outline"><path class="cls-1" d="M75,463,199.5,422.5a339,339,0,0,0,109-73c11.78-9.18,24.77-18.61,39-28,12.41-8.19,24.47-15.49,36-22a299.09,299.09,0,0,1,59-17,117.89,117.89,0,0,1,82,23l88,52,144,67c26.74,7.37,54.76,14.43,84,21,37.88,8.51,74.29,15.41,109,21l-.5,35.13L629.5,493.5c-3.14-22.62-11.62-60.5-38-98-5.09-7.24-30.6-43.5-70.84-67.9-24.64-14.93-54.79-25.43-89.16-22.1-67.88,6.57-108.86,62.83-119.91,78a207.12,207.12,0,0,0-35.66,83Z" transform="translate(-72.01 -281.46)"/></g><g id="inside"><path class="cls-2" d="M421,383.92a167,167,0,0,0-38.08,85l-106.58-2c4.92-25.48,15.84-58.27,40.16-89.07,11.39-14.42,58-73.4,130.27-72.53,34.56.42,61,14.35,74.3,22.7C507.13,330.33,458.52,340.11,421,383.92Z" transform="translate(-72.01 -281.46)"/></g></svg>